<svg width="612" height="965" viewBox="0 0 612 965" fill="none" xmlns="http://www.w3.org/2000/svg">
<path fill-rule="evenodd" clip-rule="evenodd" d="M312.929 443.842V598.834L376.336 562.143L454.62 516.964L611.184 607.32V788.039L462.156 874.046V874.302L305.592 964.658L227.308 919.479L149.227 874.297V874.084L78.081 833.025L0 787.843V435.005L78.081 389.824L149.227 348.764V177.009L227.308 131.827L298.453 90.7675V90.3608L376.534 45.1792L454.818 0L611.382 90.356V271.075L462.156 357.197V357.723L312.929 443.845V443.842ZM156.339 361.831L85.5235 402.699L22.8013 438.993L154.028 514.727L290.293 439.247L227.305 402.895L156.337 361.828L156.339 361.831ZM320.099 95.0187L453.761 172.157L588.564 94.3584L525.665 58.0571L454.818 17.1698L383.977 58.0548L320.101 95.0187H320.099ZM295.078 798.152L171.04 869.738L234.75 906.603L295.178 941.479L295.202 798.367L295.078 798.152ZM437.572 699.59L437.036 698.662L439.115 697.463L376.436 661.289L313.125 624.751V697.683V771.413L437.572 699.592V699.59ZM438.881 180.746L376.436 144.707L305.589 103.82L234.748 144.705L171.375 181.377L305.037 258.518L437.462 182.092L437.235 181.698L438.881 180.746ZM164.097 194.348V267.365V349.108L295.262 424.807L295.288 270.061L164.097 194.348ZM588.363 611.327L525.464 575.026L454.617 534.139L383.776 575.024L320.331 611.736L453.993 688.877L588.363 611.327ZM148.349 701.451L78.0786 660.896L14.8707 624.32V697.49V779.267L85.5211 820.149L148.322 856.393L148.349 701.451ZM148.377 530.201L14.8731 453.151V525.361V607.138L85.5235 648.021L148.353 684.281L148.377 530.201Z" fill="#01A1FF"/>
</svg>
