<svg width="2441" height="648" viewBox="0 0 2441 648" fill="none" xmlns="http://www.w3.org/2000/svg">
<path fill-rule="evenodd" clip-rule="evenodd" d="M210.003 297.858V401.871L252.555 377.248L305.09 346.929L410.159 407.566V528.845L310.148 586.563V586.735L205.079 647.372L152.544 617.052L100.144 586.731V586.588L52.3993 559.034L0 528.713V291.927L52.3993 261.606L100.144 234.052V118.789L152.544 88.4678L200.289 60.9131V60.6402L252.688 30.3193L305.224 0L410.292 60.637V181.916L310.148 239.711V240.064L210.003 297.859V297.858ZM104.917 242.821L57.3939 270.247L15.3017 294.604L103.367 345.428L194.812 294.774L152.542 270.379L104.916 242.819L104.917 242.821ZM214.815 63.766L304.514 115.533L394.979 63.3229L352.768 38.9615L305.224 11.5224L257.683 38.9599L214.817 63.766H214.815ZM198.023 535.631L114.783 583.671L157.538 608.412L198.091 631.816L198.107 535.775L198.023 535.631ZM293.65 469.487L293.29 468.864L294.685 468.06L252.622 443.784L210.135 419.263V468.208V517.687L293.65 469.489V469.487ZM294.528 121.296L252.622 97.1116L205.078 69.6725L157.537 97.11L115.008 121.72L204.707 173.489L293.576 122.2L293.424 121.935L294.528 121.296ZM110.124 130.425V179.426V234.283L198.147 285.083L198.165 181.235L110.124 130.425ZM394.844 410.255L352.633 385.894L305.089 358.455L257.548 385.892L214.971 410.53L304.67 462.298L394.844 410.255ZM99.5551 470.736L52.3977 443.52L9.97959 418.974V468.078V522.957L57.3923 550.393L99.5375 574.716L99.5551 470.736ZM99.5744 355.812L9.9812 304.105V352.564V407.444L57.3939 434.88L99.5583 459.214L99.5744 355.812Z" fill="#01A1FF"/>
<path d="M2363.94 418.235C2346.99 418.235 2332.36 414.895 2320.05 408.214C2307.82 401.462 2298.39 391.863 2291.78 379.415C2285.24 366.897 2281.97 352.024 2281.97 334.794C2281.97 318.056 2285.28 303.429 2291.89 290.911C2298.5 278.322 2307.82 268.547 2319.84 261.585C2331.87 254.552 2346.04 251.036 2362.35 251.036C2373.89 251.036 2384.44 252.829 2394 256.416C2403.57 260.002 2411.83 265.312 2418.79 272.345C2425.75 279.377 2431.17 288.062 2435.04 298.4C2438.9 308.668 2440.84 320.447 2440.84 333.739V346.608H2300.01V316.65H2392.84C2392.77 311.164 2391.47 306.277 2388.94 301.987C2386.41 297.697 2382.93 294.357 2378.49 291.965C2374.13 289.504 2369.11 288.273 2363.41 288.273C2357.64 288.273 2352.47 289.574 2347.9 292.176C2343.33 294.708 2339.71 298.189 2337.04 302.62C2334.37 306.98 2332.96 311.938 2332.82 317.494V347.98C2332.82 354.59 2334.12 360.392 2336.72 365.385C2339.32 370.308 2343.02 374.141 2347.8 376.884C2352.58 379.626 2358.28 380.998 2364.89 380.998C2369.46 380.998 2373.61 380.365 2377.33 379.099C2381.06 377.833 2384.26 375.969 2386.93 373.508C2389.61 371.047 2391.61 368.023 2392.95 364.436L2440.31 365.807C2438.34 376.427 2434.02 385.674 2427.34 393.551C2420.73 401.357 2412.04 407.44 2401.28 411.8C2390.52 416.09 2378.07 418.235 2363.94 418.235Z" fill="black"/>
<path d="M2273.64 253.145L2218.05 415.176H2158.97L2103.49 253.145H2157.81L2187.67 364.752H2189.35L2219.31 253.145H2273.64Z" fill="black"/>
<path d="M2032.04 415.176V253.146H2083.63V415.176H2032.04ZM2057.89 234.263C2050.64 234.263 2044.42 231.872 2039.22 227.09C2034.01 222.237 2031.41 216.4 2031.41 209.579C2031.41 202.828 2034.01 197.061 2039.22 192.279C2044.42 187.426 2050.64 185 2057.89 185C2065.2 185 2071.43 187.426 2076.56 192.279C2081.76 197.061 2084.37 202.828 2084.37 209.579C2084.37 216.4 2081.76 222.237 2076.56 227.09C2071.43 231.872 2065.2 234.263 2057.89 234.263Z" fill="black"/>
<path d="M2005.72 253.145V291.121H1903.51V253.145H2005.72ZM1924.92 214.326H1976.5V364.225C1976.5 367.389 1977 369.956 1977.98 371.925C1979.04 373.824 1980.55 375.195 1982.52 376.039C1984.49 376.813 1986.84 377.2 1989.58 377.2C1991.55 377.2 1993.63 377.024 1995.81 376.672C1998.06 376.25 1999.75 375.899 2000.87 375.617L2008.68 412.855C2006.22 413.558 2002.74 414.437 1998.23 415.492C1993.8 416.547 1988.49 417.215 1982.31 417.496C1970.21 418.059 1959.84 416.652 1951.19 413.277C1942.61 409.831 1936.03 404.486 1931.46 397.243C1926.96 389.999 1924.78 380.892 1924.92 369.921V214.326Z" fill="black"/>
<path d="M1812.65 418.235C1795.56 418.235 1780.9 414.719 1768.67 407.686C1756.5 400.654 1747.15 390.878 1740.61 378.36C1734.07 365.772 1730.79 351.215 1730.79 334.688C1730.79 318.091 1734.07 303.534 1740.61 291.016C1747.22 278.428 1756.6 268.617 1768.77 261.585C1781.01 254.552 1795.6 251.036 1812.55 251.036C1827.53 251.036 1840.57 253.743 1851.68 259.159C1862.87 264.574 1871.59 272.239 1877.85 282.155C1884.18 292.001 1887.52 303.569 1887.87 316.861H1839.66C1838.67 308.562 1835.86 302.057 1831.22 297.345C1826.65 292.634 1820.67 290.278 1813.29 290.278C1807.31 290.278 1802.07 291.965 1797.57 295.341C1793.07 298.646 1789.55 303.569 1787.02 310.109C1784.56 316.579 1783.33 324.597 1783.33 334.161C1783.33 343.725 1784.56 351.813 1787.02 358.423C1789.55 364.963 1793.07 369.921 1797.57 373.297C1802.07 376.602 1807.31 378.255 1813.29 378.255C1818.07 378.255 1822.29 377.235 1825.95 375.196C1829.67 373.156 1832.73 370.168 1835.12 366.229C1837.51 362.221 1839.03 357.368 1839.66 351.672H1887.87C1887.37 365.034 1884.03 376.708 1877.85 386.694C1871.73 396.68 1863.11 404.451 1852 410.007C1840.96 415.492 1827.84 418.235 1812.65 418.235Z" fill="black"/>
<path d="M1652.71 345.237V253.145H1704.19V415.176H1655.03V385.006H1653.34C1649.75 394.922 1643.64 402.798 1634.98 408.635C1626.41 414.402 1616.03 417.285 1603.87 417.285C1592.82 417.285 1583.12 414.754 1574.75 409.69C1566.38 404.627 1559.88 397.559 1555.24 388.487C1550.59 379.345 1548.24 368.655 1548.17 356.419V253.145H1599.75V346.292C1599.82 355.082 1602.14 362.009 1606.71 367.073C1611.29 372.136 1617.51 374.668 1625.39 374.668C1630.52 374.668 1635.13 373.543 1639.2 371.292C1643.35 368.972 1646.62 365.631 1649.01 361.271C1651.48 356.841 1652.71 351.496 1652.71 345.237Z" fill="black"/>
<path d="M1423.14 415.176V253.146H1473.24V282.682H1474.93C1477.89 271.993 1482.7 264.046 1489.38 258.842C1496.06 253.567 1503.84 250.93 1512.7 250.93C1515.09 250.93 1517.55 251.106 1520.08 251.458C1522.61 251.739 1524.97 252.196 1527.15 252.829V297.662C1524.69 296.818 1521.45 296.15 1517.44 295.657C1513.51 295.165 1509.99 294.919 1506.89 294.919C1500.78 294.919 1495.26 296.29 1490.33 299.033C1485.48 301.705 1481.65 305.468 1478.83 310.32C1476.09 315.102 1474.72 320.728 1474.72 327.198V415.176H1423.14Z" fill="black"/>
<path d="M1396.82 253.145V291.121H1294.6V253.145H1396.82ZM1316.01 214.326H1367.6V364.225C1367.6 367.389 1368.09 369.956 1369.07 371.925C1370.13 373.824 1371.64 375.195 1373.61 376.039C1375.58 376.813 1377.94 377.2 1380.68 377.2C1382.65 377.2 1384.72 377.024 1386.9 376.672C1389.15 376.25 1390.84 375.899 1391.97 375.617L1399.77 412.855C1397.31 413.558 1393.83 414.437 1389.33 415.492C1384.9 416.547 1379.59 417.215 1373.4 417.496C1361.3 418.059 1350.93 416.652 1342.28 413.277C1333.7 409.831 1327.13 404.486 1322.55 397.243C1318.05 389.999 1315.87 380.892 1316.01 369.921V214.326Z" fill="black"/>
<path d="M1275.95 302.62L1228.59 303.886C1228.1 300.51 1226.76 297.521 1224.58 294.919C1222.4 292.247 1219.55 290.172 1216.04 288.695C1212.59 287.148 1208.58 286.375 1204.01 286.375C1198.03 286.375 1192.93 287.57 1188.71 289.961C1184.57 292.352 1182.53 295.587 1182.6 299.666C1182.53 302.831 1183.79 305.573 1186.39 307.894C1189.07 310.215 1193.81 312.079 1200.63 313.485L1231.86 319.392C1248.03 322.487 1260.06 327.621 1267.94 334.794C1275.88 341.967 1279.89 351.461 1279.96 363.276C1279.89 374.387 1276.59 384.057 1270.05 392.285C1263.58 400.513 1254.72 406.913 1243.46 411.484C1232.21 415.985 1219.34 418.235 1204.85 418.235C1181.72 418.235 1163.47 413.488 1150.11 403.994C1136.81 394.43 1129.22 381.631 1127.32 365.596L1178.27 364.331C1179.4 370.238 1182.31 374.739 1187.03 377.833C1191.74 380.927 1197.75 382.475 1205.07 382.475C1211.68 382.475 1217.06 381.244 1221.21 378.782C1225.35 376.321 1227.46 373.051 1227.53 368.972C1227.46 365.315 1225.85 362.397 1222.68 360.216C1219.52 357.966 1214.56 356.208 1207.81 354.942L1179.54 349.562C1163.29 346.608 1151.2 341.158 1143.25 333.211C1135.3 325.194 1131.36 314.997 1131.43 302.62C1131.36 291.79 1134.25 282.542 1140.08 274.876C1145.92 267.14 1154.22 261.233 1164.98 257.154C1175.74 253.075 1188.43 251.036 1203.06 251.036C1225 251.036 1242.3 255.642 1254.96 264.855C1267.62 273.997 1274.62 286.586 1275.95 302.62Z" fill="black"/>
<path d="M997.808 322.768V415.176H946.225V253.146H995.277V282.893H997.07C1000.66 272.978 1006.78 265.207 1015.43 259.58C1024.08 253.884 1034.38 251.036 1046.33 251.036C1057.73 251.036 1067.61 253.603 1075.98 258.737C1084.41 263.8 1090.95 270.903 1095.6 280.045C1100.31 289.117 1102.63 299.736 1102.56 311.903V415.176H1050.97V322.03C1051.05 313.028 1048.76 305.995 1044.12 300.932C1039.55 295.869 1033.18 293.337 1025.02 293.337C1019.61 293.337 1014.83 294.532 1010.68 296.923C1006.6 299.244 1003.43 302.585 1001.18 306.945C999.004 311.305 997.879 316.579 997.808 322.768Z" fill="black"/>
<path d="M837.939 418.235C820.92 418.235 806.293 414.754 794.056 407.792C781.89 400.759 772.501 390.984 765.891 378.466C759.35 365.878 756.08 351.285 756.08 334.688C756.08 318.021 759.35 303.429 765.891 290.911C772.501 278.322 781.89 268.547 794.056 261.585C806.293 254.552 820.92 251.036 837.939 251.036C854.958 251.036 869.551 254.552 881.717 261.585C893.954 268.547 903.342 278.322 909.882 290.911C916.493 303.429 919.798 318.021 919.798 334.688C919.798 351.285 916.493 365.878 909.882 378.466C903.342 390.984 893.954 400.759 881.717 407.792C869.551 414.754 854.958 418.235 837.939 418.235ZM838.256 379.31C844.444 379.31 849.684 377.411 853.973 373.613C858.263 369.816 861.533 364.541 863.784 357.79C866.105 351.039 867.265 343.233 867.265 334.372C867.265 325.37 866.105 317.494 863.784 310.742C861.533 303.991 858.263 298.717 853.973 294.919C849.684 291.122 844.444 289.223 838.256 289.223C831.856 289.223 826.441 291.122 822.01 294.919C817.65 298.717 814.31 303.991 811.989 310.742C809.739 317.494 808.613 325.37 808.613 334.372C808.613 343.233 809.739 351.039 811.989 357.79C814.31 364.541 817.65 369.816 822.01 373.613C826.441 377.411 831.856 379.31 838.256 379.31Z" fill="black"/>
<path d="M732.424 277.408H679.68C678.976 271.993 677.535 267.105 675.355 262.745C673.174 258.384 670.291 254.657 666.705 251.563C663.118 248.469 658.863 246.113 653.94 244.495C649.088 242.807 643.708 241.963 637.801 241.963C627.322 241.963 618.285 244.53 610.69 249.664C603.165 254.798 597.363 262.217 593.285 271.922C589.276 281.627 587.272 293.372 587.272 307.155C587.272 321.502 589.311 333.527 593.39 343.232C597.539 352.867 603.341 360.146 610.796 365.069C618.32 369.921 627.217 372.347 637.484 372.347C643.251 372.347 648.49 371.609 653.202 370.132C657.984 368.655 662.169 366.51 665.755 363.697C669.412 360.814 672.401 357.333 674.722 353.254C677.113 349.105 678.765 344.428 679.68 339.224L732.424 339.54C731.51 349.105 728.732 358.528 724.09 367.811C719.519 377.094 713.225 385.568 705.208 393.234C697.191 400.829 687.415 406.877 675.882 411.378C664.419 415.879 651.268 418.129 636.429 418.129C616.879 418.129 599.368 413.839 583.896 405.26C568.495 396.61 556.328 384.021 547.397 367.495C538.466 350.968 534 330.855 534 307.155C534 283.385 538.536 263.237 547.608 246.71C556.68 230.184 568.952 217.631 584.423 209.051C599.895 200.471 617.23 196.181 636.429 196.181C649.51 196.181 661.606 198.01 672.717 201.667C683.829 205.253 693.604 210.528 702.043 217.49C710.482 224.382 717.339 232.856 722.613 242.913C727.888 252.969 731.158 264.468 732.424 277.408Z" fill="black"/>
</svg>
