<svg width="2567" height="719" viewBox="0 0 2567 719" fill="none" xmlns="http://www.w3.org/2000/svg">
<path d="M451.388 456.002L339.883 520.38V649.135L451.388 584.757V456.002Z" fill="#01A1FF" stroke="#01A1FF" stroke-width="10.7296" stroke-linejoin="round"/>
<path d="M339.88 391.627L451.386 456.005L339.88 520.382L228.375 456.005L339.88 391.627Z" stroke="#01A1FF" stroke-width="10.7296" stroke-linejoin="round"/>
<path d="M116.867 520.381L228.373 584.759V713.514L116.867 649.136V520.381Z" stroke="#01A1FF" stroke-width="10.7296" stroke-linejoin="round"/>
<path d="M339.88 520.381L228.375 584.759V713.514L339.88 649.136V520.381Z" fill="#01A1FF" stroke="#01A1FF" stroke-width="10.7296" stroke-linejoin="round"/>
<path d="M228.373 456.002L339.878 520.38L228.373 584.757L116.867 520.38L228.373 456.002Z" stroke="#01A1FF" stroke-width="10.7296" stroke-linejoin="round"/>
<path d="M451.388 69.7422L339.883 134.12V262.875L451.388 198.498V69.7422Z" fill="#01A1FF" stroke="#01A1FF" stroke-width="10.7296" stroke-linejoin="round"/>
<path d="M339.88 5.36523L451.386 69.7429L339.88 134.121L228.375 69.7429L339.88 5.36523Z" stroke="#01A1FF" stroke-width="10.7296" stroke-linejoin="round"/>
<path d="M5.36719 456.002L116.873 520.38V649.135L5.36719 584.757V456.002Z" stroke="#01A1FF" stroke-width="10.7296" stroke-linejoin="round"/>
<path d="M228.373 456.002L116.867 520.38V649.135L228.373 584.757V456.002Z" fill="#01A1FF" stroke="#01A1FF" stroke-width="10.7296" stroke-linejoin="round"/>
<path d="M116.867 134.115L228.373 198.493V327.248L116.867 262.871V134.115Z" stroke="#01A1FF" stroke-width="10.7296" stroke-linejoin="round"/>
<path d="M339.88 134.115L228.375 198.493V327.248L339.88 262.871V134.115Z" fill="#01A1FF" stroke="#01A1FF" stroke-width="10.7296" stroke-linejoin="round"/>
<path d="M228.373 69.7422L339.878 134.12L228.373 198.498L116.867 134.12L228.373 69.7422Z" stroke="#01A1FF" stroke-width="10.7296" stroke-linejoin="round"/>
<path d="M5.36719 327.256L116.873 391.634V520.389L5.36719 456.011V327.256Z" stroke="#01A1FF" stroke-width="10.7296" stroke-linejoin="round"/>
<path d="M228.373 327.256L116.867 391.634V520.389L228.373 456.011V327.256Z" fill="#01A1FF" stroke="#01A1FF" stroke-width="10.7296" stroke-linejoin="round"/>
<path d="M116.873 262.877L228.378 327.255L116.873 391.632L5.36719 327.255L116.873 262.877Z" stroke="#01A1FF" stroke-width="10.7296" stroke-linejoin="round"/>
<path d="M2485.72 482.17C2467.94 482.17 2452.6 478.666 2439.69 471.659C2426.86 464.578 2416.97 454.509 2410.04 441.453C2403.18 428.324 2399.75 412.723 2399.75 394.651C2399.75 377.096 2403.22 361.753 2410.15 348.624C2417.08 335.42 2426.86 325.168 2439.47 317.865C2452.08 310.489 2466.95 306.801 2484.06 306.801C2496.16 306.801 2507.22 308.682 2517.25 312.444C2527.28 316.205 2535.95 321.774 2543.25 329.151C2550.56 336.527 2556.24 345.636 2560.29 356.48C2564.35 367.249 2566.38 379.604 2566.38 393.545V407.043H2418.67V375.621H2516.04C2515.96 369.867 2514.6 364.741 2511.94 360.241C2509.29 355.742 2505.64 352.238 2500.99 349.73C2496.42 347.149 2491.14 345.858 2485.17 345.858C2479.12 345.858 2473.7 347.222 2468.9 349.952C2464.11 352.607 2460.31 356.258 2457.51 360.905C2454.7 365.478 2453.23 370.679 2453.08 376.506V408.482C2453.08 415.415 2454.44 421.501 2457.17 426.738C2459.9 431.901 2463.78 435.921 2468.79 438.798C2473.81 441.675 2479.78 443.113 2486.72 443.113C2491.51 443.113 2495.86 442.449 2499.77 441.121C2503.68 439.794 2507.04 437.839 2509.84 435.257C2512.64 432.676 2514.75 429.504 2516.15 425.742L2565.83 427.18C2563.76 438.318 2559.22 448.018 2552.22 456.28C2545.28 464.467 2536.17 470.848 2524.89 475.421C2513.6 479.92 2500.55 482.17 2485.72 482.17Z" fill="white"/>
<path d="M2391.02 309.012L2332.71 478.959H2270.75L2212.55 309.012H2269.54L2300.85 426.072H2302.62L2334.04 309.012H2391.02Z" fill="white"/>
<path d="M2137.62 478.964V309.016H2191.73V478.964H2137.62ZM2164.73 289.211C2157.13 289.211 2150.61 286.703 2145.15 281.688C2139.69 276.598 2136.96 270.476 2136.96 263.321C2136.96 256.24 2139.69 250.191 2145.15 245.175C2150.61 240.086 2157.13 237.541 2164.73 237.541C2172.4 237.541 2178.93 240.086 2184.32 245.175C2189.77 250.191 2192.5 256.24 2192.5 263.321C2192.5 270.476 2189.77 276.598 2184.32 281.688C2178.93 286.703 2172.4 289.211 2164.73 289.211Z" fill="white"/>
<path d="M2109.99 309.006V348.837H2002.78V309.006H2109.99ZM2025.24 268.289H2079.35V425.513C2079.35 428.832 2079.86 431.524 2080.9 433.59C2082 435.581 2083.59 437.02 2085.65 437.905C2087.72 438.716 2090.19 439.122 2093.07 439.122C2095.13 439.122 2097.31 438.938 2099.59 438.569C2101.95 438.126 2103.72 437.757 2104.91 437.462L2113.09 476.519C2110.51 477.257 2106.86 478.179 2102.14 479.285C2097.49 480.392 2091.92 481.093 2085.43 481.388C2072.74 481.978 2061.86 480.502 2052.79 476.962C2043.79 473.348 2036.9 467.742 2032.1 460.144C2027.38 452.547 2025.09 442.994 2025.24 431.488V268.289Z" fill="white"/>
<path d="M1907.52 482.17C1889.59 482.17 1874.21 478.482 1861.38 471.106C1848.62 463.729 1838.81 453.477 1831.95 440.347C1825.09 427.144 1821.66 411.875 1821.66 394.541C1821.66 377.133 1825.09 361.864 1831.95 348.734C1838.88 335.531 1848.73 325.241 1861.49 317.865C1874.32 310.489 1889.63 306.801 1907.4 306.801C1923.12 306.801 1936.8 309.641 1948.45 315.32C1960.18 321 1969.33 329.04 1975.89 339.44C1982.53 349.767 1986.04 361.901 1986.4 375.842H1935.84C1934.81 367.138 1931.86 360.315 1926.99 355.373C1922.19 350.431 1915.92 347.96 1908.18 347.96C1901.91 347.96 1896.41 349.73 1891.69 353.271C1886.97 356.738 1883.28 361.901 1880.63 368.761C1878.05 375.547 1876.76 383.956 1876.76 393.988C1876.76 404.019 1878.05 412.502 1880.63 419.435C1883.28 426.295 1886.97 431.495 1891.69 435.036C1896.41 438.503 1901.91 440.236 1908.18 440.236C1913.2 440.236 1917.62 439.167 1921.46 437.028C1925.37 434.889 1928.57 431.754 1931.08 427.623C1933.59 423.419 1935.18 418.329 1935.84 412.354H1986.4C1985.89 426.369 1982.38 438.614 1975.89 449.088C1969.48 459.562 1960.44 467.713 1948.79 473.54C1937.2 479.293 1923.45 482.17 1907.52 482.17Z" fill="white"/>
<path d="M1739.74 405.603V309.012H1793.74V478.959H1742.18V447.316H1740.41C1736.64 457.716 1730.23 465.977 1721.15 472.1C1712.15 478.148 1701.27 481.172 1688.51 481.172C1676.93 481.172 1666.75 478.517 1657.98 473.206C1649.2 467.895 1642.38 460.482 1637.51 450.967C1632.64 441.378 1630.17 430.166 1630.09 417.331V309.012H1684.2V406.71C1684.27 415.93 1686.71 423.195 1691.5 428.506C1696.3 433.817 1702.82 436.473 1711.08 436.473C1716.47 436.473 1721.3 435.292 1725.58 432.932C1729.93 430.498 1733.36 426.994 1735.87 422.421C1738.45 417.774 1739.74 412.168 1739.74 405.603Z" fill="white"/>
<path d="M1498.95 478.982V309.034H1551.51V340.014H1553.28C1556.38 328.803 1561.43 320.468 1568.44 315.009C1575.44 309.477 1583.6 306.711 1592.89 306.711C1595.4 306.711 1597.98 306.895 1600.63 307.264C1603.29 307.559 1605.76 308.039 1608.05 308.703V355.726C1605.47 354.841 1602.07 354.14 1597.87 353.624C1593.74 353.107 1590.05 352.849 1586.8 352.849C1580.39 352.849 1574.6 354.287 1569.43 357.164C1564.34 359.967 1560.32 363.913 1557.37 369.003C1554.5 374.019 1553.06 379.92 1553.06 386.706V478.982H1498.95Z" fill="white"/>
<path d="M1471.32 309.006V348.837H1364.11V309.006H1471.32ZM1386.57 268.289H1440.67V425.513C1440.67 428.832 1441.19 431.524 1442.22 433.59C1443.33 435.581 1444.92 437.02 1446.98 437.905C1449.05 438.716 1451.52 439.122 1454.39 439.122C1456.46 439.122 1458.64 438.938 1460.92 438.569C1463.28 438.126 1465.05 437.757 1466.23 437.462L1474.42 476.519C1471.84 477.257 1468.19 478.179 1463.47 479.285C1458.82 480.392 1453.25 481.093 1446.76 481.388C1434.07 481.978 1423.19 480.502 1414.12 476.962C1405.12 473.348 1398.22 467.742 1393.43 460.144C1388.71 452.547 1386.42 442.994 1386.57 431.488V268.289Z" fill="white"/>
<path d="M1344.58 360.905L1294.91 362.233C1294.39 358.692 1292.99 355.557 1290.7 352.828C1288.41 350.025 1285.43 347.849 1281.74 346.3C1278.12 344.678 1273.92 343.866 1269.13 343.866C1262.86 343.866 1257.51 345.12 1253.08 347.628C1248.73 350.136 1246.59 353.529 1246.66 357.807C1246.59 361.127 1247.92 364.003 1250.65 366.437C1253.45 368.872 1258.43 370.826 1265.58 372.301L1298.34 378.497C1315.3 381.743 1327.91 387.128 1336.18 394.651C1344.51 402.175 1348.71 412.133 1348.79 424.525C1348.71 436.179 1345.25 446.322 1338.39 454.952C1331.6 463.582 1322.31 470.294 1310.51 475.089C1298.7 479.81 1285.21 482.17 1270.01 482.17C1245.74 482.17 1226.6 477.191 1212.59 467.233C1198.65 457.202 1190.68 443.777 1188.69 426.959L1242.13 425.631C1243.31 431.827 1246.37 436.548 1251.31 439.794C1256.25 443.039 1262.56 444.662 1270.23 444.662C1277.17 444.662 1282.81 443.371 1287.16 440.789C1291.51 438.208 1293.72 434.778 1293.8 430.5C1293.72 426.664 1292.03 423.603 1288.71 421.316C1285.39 418.956 1280.19 417.112 1273.11 415.784L1243.46 410.141C1226.42 407.043 1213.73 401.327 1205.39 392.992C1197.06 384.583 1192.93 373.887 1193 360.905C1192.93 349.546 1195.95 339.846 1202.08 331.806C1208.2 323.692 1216.9 317.496 1228.19 313.218C1239.47 308.94 1252.79 306.801 1268.13 306.801C1291.14 306.801 1309.29 311.632 1322.57 321.295C1335.84 330.884 1343.18 344.087 1344.58 360.905Z" fill="white"/>
<path d="M1052.82 382.038V478.961H998.719V309.014H1050.17V340.215H1052.05C1055.81 329.815 1062.23 321.664 1071.3 315.763C1080.37 309.788 1091.18 306.801 1103.72 306.801C1115.67 306.801 1126.03 309.493 1134.81 314.878C1143.66 320.189 1150.52 327.639 1155.39 337.228C1160.33 346.743 1162.77 357.881 1162.69 370.642V478.961H1108.59V381.264C1108.66 371.822 1106.26 364.446 1101.4 359.135C1096.6 353.824 1089.93 351.169 1081.37 351.169C1075.69 351.169 1070.67 352.423 1066.32 354.931C1062.04 357.365 1058.72 360.868 1056.36 365.442C1054.08 370.015 1052.9 375.547 1052.82 382.038Z" fill="white"/>
<path d="M885.172 482.17C867.321 482.17 851.979 478.519 839.144 471.216C826.383 463.84 816.536 453.587 809.602 440.458C802.742 427.254 799.312 411.949 799.312 394.541C799.312 377.059 802.742 361.753 809.602 348.624C816.536 335.42 826.383 325.168 839.144 317.865C851.979 310.489 867.321 306.801 885.172 306.801C903.022 306.801 918.328 310.489 931.089 317.865C943.923 325.168 953.771 335.42 960.631 348.624C967.564 361.753 971.031 377.059 971.031 394.541C971.031 411.949 967.564 427.254 960.631 440.458C953.771 453.587 943.923 463.84 931.089 471.216C918.328 478.519 903.022 482.17 885.172 482.17ZM885.504 441.343C891.995 441.343 897.49 439.351 901.99 435.368C906.489 431.385 909.919 425.853 912.279 418.772C914.714 411.69 915.931 403.503 915.931 394.209C915.931 384.767 914.714 376.506 912.279 369.425C909.919 362.344 906.489 356.811 901.99 352.828C897.49 348.845 891.995 346.854 885.504 346.854C878.791 346.854 873.112 348.845 868.465 352.828C863.891 356.811 860.388 362.344 857.954 369.425C855.593 376.506 854.413 384.767 854.413 394.209C854.413 403.503 855.593 411.69 857.954 418.772C860.388 425.853 863.891 431.385 868.465 435.368C873.112 439.351 878.791 441.343 885.504 441.343Z" fill="white"/>
<path d="M774.495 334.455H719.174C718.436 328.775 716.924 323.649 714.637 319.076C712.351 314.502 709.326 310.593 705.564 307.347C701.803 304.102 697.34 301.631 692.177 299.934C687.087 298.164 681.444 297.279 675.248 297.279C664.258 297.279 654.779 299.971 646.813 305.356C638.92 310.74 632.835 318.522 628.557 328.701C624.352 338.881 622.25 351.199 622.25 365.656C622.25 380.704 624.389 393.317 628.667 403.496C633.019 413.602 639.105 421.236 646.923 426.399C654.816 431.489 664.147 434.034 674.916 434.034C680.965 434.034 686.46 433.259 691.402 431.71C696.418 430.161 700.807 427.911 704.569 424.961C708.404 421.937 711.539 418.285 713.973 414.007C716.481 409.655 718.215 404.75 719.174 399.292L774.495 399.624C773.536 409.655 770.623 419.539 765.754 429.276C760.96 439.013 754.358 447.901 745.949 455.941C737.54 463.907 727.287 470.251 715.19 474.972C703.167 479.692 689.374 482.053 673.81 482.053C653.304 482.053 634.937 477.553 618.709 468.554C602.555 459.482 589.795 446.278 580.427 428.944C571.059 411.61 566.375 390.514 566.375 365.656C566.375 340.725 571.133 319.592 580.648 302.258C590.163 284.924 603.035 271.757 619.263 262.758C635.49 253.759 653.673 249.26 673.81 249.26C687.53 249.26 700.217 251.178 711.871 255.013C723.526 258.775 733.779 264.307 742.63 271.61C751.481 278.838 758.673 287.727 764.205 298.275C769.738 308.823 773.168 320.883 774.495 334.455Z" fill="white"/>
</svg>
