<svg width="462" height="120" viewBox="0 0 462 120" fill="none" xmlns="http://www.w3.org/2000/svg">
<path d="M51.0311 120L74.0253 97.8523H101.86L51.0311 0L0 97.8523H27.8351L51.0311 120ZM69.7895 86.7785L50.8294 104.899L32.0709 86.7785H17.9516L50.8294 23.557L83.9088 86.7785H69.7895Z" fill="black"/>
<path d="M460.849 66.3402H428.644C428.921 70.0313 430.12 72.9688 432.243 75.1527C434.365 77.3059 437.087 78.3824 440.409 78.3824C442.993 78.3824 445.131 77.7673 446.823 76.5369C448.484 75.3065 450.375 73.0304 452.498 69.7084L461.264 74.5991C459.911 76.906 458.481 78.89 456.973 80.551C455.466 82.1812 453.851 83.5346 452.129 84.6112C450.406 85.657 448.545 86.426 446.546 86.9181C444.547 87.4103 442.378 87.6563 440.04 87.6563C433.335 87.6563 427.952 85.5032 423.892 81.1969C419.831 76.8599 417.801 71.1079 417.801 63.941C417.801 56.8357 419.77 51.0837 423.707 46.6851C427.675 42.3481 432.935 40.1796 439.487 40.1796C446.1 40.1796 451.329 42.2866 455.174 46.5006C458.988 50.6838 460.895 56.4819 460.895 63.8949L460.849 66.3402ZM450.191 57.8507C448.745 52.3141 445.254 49.5457 439.717 49.5457C438.456 49.5457 437.272 49.7457 436.165 50.1455C435.057 50.5146 434.042 51.0683 433.119 51.8065C432.227 52.514 431.458 53.3752 430.812 54.3903C430.167 55.4054 429.674 56.5588 429.336 57.8507H450.191Z" fill="black"/>
<path d="M406.819 85.3033C406.819 87.4256 406.742 89.2866 406.589 90.886C406.466 92.5163 406.281 93.9466 406.035 95.177C405.297 98.5605 403.851 101.467 401.698 103.897C397.638 108.573 392.055 110.91 384.949 110.91C378.951 110.91 374.015 109.295 370.139 106.066C366.14 102.744 363.833 98.1452 363.218 92.2702H373.645C374.045 94.4849 374.707 96.192 375.629 97.3916C377.783 100.191 380.92 101.59 385.042 101.59C392.639 101.59 396.438 96.9302 396.438 87.6102V81.3353C392.316 85.5493 387.564 87.6563 382.181 87.6563C376.06 87.6563 371.046 85.4417 367.14 81.0124C363.203 76.5215 361.234 70.908 361.234 64.1717C361.234 57.62 363.064 52.0526 366.725 47.4695C370.662 42.6095 375.86 40.1796 382.32 40.1796C387.979 40.1796 392.685 42.2866 396.438 46.5006V41.4253H406.819V85.3033ZM396.853 63.9872C396.853 59.6194 395.684 56.1282 393.347 53.5137C390.978 50.8376 387.948 49.4996 384.257 49.4996C380.32 49.4996 377.213 50.9607 374.937 53.8828C372.876 56.4973 371.846 59.8808 371.846 64.0333C371.846 68.1243 372.876 71.477 374.937 74.0915C377.183 76.9522 380.289 78.3824 384.257 78.3824C388.225 78.3824 391.363 76.9368 393.67 74.0454C395.792 71.4309 396.853 68.0781 396.853 63.9872Z" fill="black"/>
<path d="M339.827 41.4253H350.254V86.3645H339.827V81.6583C335.552 85.657 330.953 87.6563 326.031 87.6563C319.818 87.6563 314.681 85.4109 310.621 80.9201C306.592 76.337 304.577 70.6158 304.577 63.7565C304.577 57.0202 306.592 51.4067 310.621 46.9158C314.651 42.425 319.695 40.1796 325.755 40.1796C330.984 40.1796 335.675 42.3327 339.827 46.639V41.4253ZM315.189 63.7565C315.189 68.0628 316.342 71.5693 318.649 74.2761C321.018 77.0137 324.001 78.3824 327.6 78.3824C331.445 78.3824 334.552 77.0598 336.92 74.4145C339.289 71.677 340.473 68.2012 340.473 63.9872C340.473 59.7732 339.289 56.2974 336.92 53.5598C334.552 50.8838 331.476 49.5457 327.692 49.5457C324.124 49.5457 321.141 50.8991 318.742 53.6059C316.373 56.3435 315.189 59.727 315.189 63.7565Z" fill="black"/>
<path d="M260.421 110.818H250.039V41.4253H260.421V46.316C264.512 42.2251 269.156 40.1796 274.355 40.1796C280.537 40.1796 285.628 42.4557 289.627 47.0081C293.687 51.5297 295.717 57.2355 295.717 64.1256C295.717 70.8618 293.702 76.4754 289.673 80.9662C285.674 85.4263 280.629 87.6563 274.539 87.6563C269.279 87.6563 264.573 85.5493 260.421 81.3353V110.818ZM285.105 64.1717C285.105 59.8654 283.936 56.3589 281.598 53.6521C279.23 50.9145 276.246 49.5457 272.647 49.5457C268.833 49.5457 265.742 50.8684 263.373 53.5137C261.005 56.159 259.821 59.6347 259.821 63.941C259.821 68.155 261.005 71.6308 263.373 74.3684C265.711 77.0444 268.787 78.3825 272.601 78.3825C276.2 78.3825 279.168 77.0291 281.506 74.3222C283.905 71.6154 285.105 68.2319 285.105 64.1717Z" fill="black"/>
<path d="M213.22 41.4253H223.601V45.4394C225.509 43.44 227.2 42.0713 228.677 41.333C230.184 40.5641 231.968 40.1796 234.029 40.1796C236.766 40.1796 239.627 41.0716 242.611 42.8556L237.858 52.3602C235.89 50.9453 233.967 50.2378 232.091 50.2378C226.431 50.2378 223.601 54.5133 223.601 63.0644V86.3645H213.22V41.4253Z" fill="black"/>
<path d="M200.071 41.425V86.3642H189.69V41.425H200.071ZM188.121 22.7388C188.121 20.924 188.783 19.3553 190.105 18.0327C191.428 16.71 193.012 16.0487 194.858 16.0487C196.734 16.0487 198.333 16.71 199.656 18.0327C200.979 19.3246 201.64 20.9087 201.64 22.785C201.64 24.6613 200.979 26.2607 199.656 27.5834C198.364 28.906 196.78 29.5674 194.904 29.5674C193.027 29.5674 191.428 28.906 190.105 27.5834C188.783 26.2607 188.121 24.6459 188.121 22.7388Z" fill="black"/>
<path d="M166.159 41.4253H176.587V86.3645H166.159V81.6583C161.884 85.657 157.285 87.6563 152.364 87.6563C146.15 87.6563 141.014 85.4109 136.953 80.9201C132.924 76.337 130.909 70.6158 130.909 63.7565C130.909 57.0202 132.924 51.4067 136.953 46.9158C140.983 42.425 146.027 40.1796 152.087 40.1796C157.316 40.1796 162.007 42.3327 166.159 46.639V41.4253ZM141.521 63.7565C141.521 68.0628 142.675 71.5693 144.982 74.2761C147.35 77.0137 150.334 78.3824 153.932 78.3824C157.777 78.3824 160.884 77.0598 163.253 74.4145C165.621 71.677 166.805 68.2012 166.805 63.9872C166.805 59.7732 165.621 56.2974 163.253 53.5598C160.884 50.8838 157.808 49.5457 154.025 49.5457C150.457 49.5457 147.473 50.8991 145.074 53.6059C142.705 56.3435 141.521 59.727 141.521 63.7565Z" fill="black"/>
</svg>
