<svg width="671" height="83" viewBox="0 0 671 83" fill="none" xmlns="http://www.w3.org/2000/svg">
<path d="M50.9082 0.935547L24.9082 42.4355H77.4082L50.9082 0.935547Z" fill="currentColor"/>
<path d="M80.9082 48.9355H21.1695L0.908203 80.9355H100.908L80.9082 48.9355Z" fill="currentColor"/>
<path d="M50.9082 0.935547L24.9082 42.4355H77.4082L50.9082 0.935547Z" stroke="currentColor"/>
<path d="M80.9082 48.9355H21.1695L0.908203 80.9355H100.908L80.9082 48.9355Z" stroke="currentColor"/>
<path d="M664.381 82.5856C662.5 82.5856 660.909 81.9347 659.607 80.6328C658.305 79.3309 657.654 77.7397 657.654 75.8592C657.654 73.9787 658.305 72.3875 659.607 71.0856C660.909 69.7838 662.5 69.1328 664.381 69.1328C666.189 69.1328 667.708 69.7838 668.937 71.0856C670.239 72.3875 670.89 73.9787 670.89 75.8592C670.89 77.7397 670.239 79.3309 668.937 80.6328C667.708 81.9347 666.189 82.5856 664.381 82.5856Z" fill="currentColor"/>
<path d="M591.646 52.1001C591.646 45.9523 592.876 40.6002 595.335 36.0436C597.794 31.4146 601.194 27.8345 605.533 25.303C609.945 22.7716 614.972 21.5059 620.613 21.5059C627.918 21.5059 633.922 23.2779 638.623 26.8219C643.396 30.3659 646.543 35.2841 648.061 41.5766H637.429C636.417 37.9602 634.428 35.1033 631.462 33.0058C628.569 30.9084 624.953 29.8596 620.613 29.8596C614.972 29.8596 610.415 31.8124 606.944 35.7181C603.472 39.5514 601.736 45.0121 601.736 52.1001C601.736 59.2605 603.472 64.7935 606.944 68.6991C610.415 72.6048 614.972 74.5576 620.613 74.5576C624.953 74.5576 628.569 73.545 631.462 71.5199C634.356 69.4947 636.345 66.6017 637.429 62.8407H648.061C646.47 68.9161 643.288 73.7982 638.514 77.4869C633.741 81.1032 627.774 82.9114 620.613 82.9114C614.972 82.9114 609.945 81.6457 605.533 79.1142C601.194 76.5828 597.794 73.0026 595.335 68.3737C592.876 63.7448 591.646 58.3202 591.646 52.1001Z" fill="currentColor"/>
<path d="M554.906 21.3984C562.139 21.3984 567.998 23.6044 572.482 28.0163C576.966 32.356 579.208 38.6484 579.208 46.8937V81.936H569.444V48.304C569.444 42.3732 567.961 37.8528 564.996 34.7427C562.031 31.5604 557.98 29.9692 552.845 29.9692C547.637 29.9692 543.479 31.5965 540.369 34.8512C537.331 38.1059 535.812 42.8434 535.812 49.0635V81.936H525.939V22.4833H535.812V30.9456C537.765 27.9079 540.405 25.5572 543.732 23.8937C547.131 22.2302 550.856 21.3984 554.906 21.3984Z" fill="currentColor"/>
<path d="M509.113 6.31836V81.9361H499.24V6.31836H509.113Z" fill="currentColor"/>
<path d="M457.285 49.9303C457.285 51.8108 457.177 53.7998 456.96 55.8973H409.441C409.803 61.7558 411.792 66.3485 415.408 69.6756C419.097 72.9303 423.545 74.5576 428.752 74.5576C433.02 74.5576 436.564 73.5812 439.384 71.6284C442.278 69.6032 444.303 66.9271 445.46 63.6001H456.092C454.501 69.3139 451.318 73.979 446.545 77.5953C441.771 81.1394 435.84 82.9114 428.752 82.9114C423.111 82.9114 418.048 81.6457 413.564 79.1142C409.152 76.5828 405.68 73.0026 403.149 68.3737C400.617 63.6724 399.352 58.2479 399.352 52.1001C399.352 45.9523 400.581 40.564 403.04 35.9351C405.499 31.3062 408.935 27.7621 413.347 25.303C417.831 22.7716 422.966 21.5059 428.752 21.5059C434.394 21.5059 439.384 22.7354 443.724 25.1945C448.064 27.6536 451.391 31.053 453.705 35.3926C456.092 39.6599 457.285 44.5058 457.285 49.9303ZM447.087 47.869C447.087 44.108 446.256 40.8895 444.592 38.2134C442.929 35.4649 440.65 33.4036 437.757 32.0294C434.936 30.5829 431.79 29.8596 428.318 29.8596C423.328 29.8596 419.061 31.4508 415.517 34.6332C412.045 37.8156 410.056 42.2275 409.55 47.869H447.087Z" fill="currentColor"/>
<path d="M362.761 21.3984C367.39 21.3984 371.512 22.3748 375.129 24.3277C378.745 26.2082 381.602 29.0651 383.699 32.8984C385.797 36.7317 386.846 41.3968 386.846 46.8937V81.936H377.081V48.304C377.081 42.3732 375.599 37.8528 372.633 34.7427C369.74 31.5604 365.798 29.9692 360.808 29.9692C355.673 29.9692 351.586 31.6327 348.548 34.9597C345.511 38.2144 343.992 42.9518 343.992 49.172V81.936H334.228V48.304C334.228 42.3732 332.745 37.8528 329.78 34.7427C326.887 31.5604 322.945 29.9692 317.954 29.9692C312.819 29.9692 308.733 31.6327 305.695 34.9597C302.657 38.2144 301.138 42.9518 301.138 49.172V81.936H291.266V22.4833H301.138V31.0541C303.091 27.944 305.695 25.5572 308.95 23.8937C312.277 22.2302 315.929 21.3984 319.907 21.3984C324.898 21.3984 329.31 22.5195 333.143 24.7616C336.976 27.0038 339.833 30.2946 341.714 34.6343C343.377 30.4393 346.126 27.1846 349.959 24.8701C353.792 22.5557 358.059 21.3984 362.761 21.3984Z" fill="currentColor"/>
<path d="M221.678 52.1001C221.678 45.9523 222.907 40.6002 225.366 36.0436C227.826 31.4146 231.225 27.8345 235.564 25.303C239.976 22.7716 245.003 21.5059 250.645 21.5059C257.95 21.5059 263.953 23.2779 268.654 26.8219C273.428 30.3659 276.574 35.2841 278.093 41.5766H267.461C266.448 37.9602 264.459 35.1033 261.494 33.0058C258.601 30.9084 254.984 29.8596 250.645 29.8596C245.003 29.8596 240.447 31.8124 236.975 35.7181C233.503 39.5514 231.767 45.0121 231.767 52.1001C231.767 59.2605 233.503 64.7935 236.975 68.6991C240.447 72.6048 245.003 74.5576 250.645 74.5576C254.984 74.5576 258.601 73.545 261.494 71.5199C264.387 69.4947 266.376 66.6017 267.461 62.8407H278.093C276.501 68.9161 273.319 73.7982 268.546 77.4869C263.772 81.1032 257.805 82.9114 250.645 82.9114C245.003 82.9114 239.976 81.6457 235.564 79.1142C231.225 76.5828 227.826 73.0026 225.366 68.3737C222.907 63.7448 221.678 58.3202 221.678 52.1001Z" fill="currentColor"/>
<path d="M196.96 65.1197H163.979L157.903 81.9357H147.488L174.828 6.75195H186.219L213.45 81.9357H203.035L196.96 65.1197ZM194.139 57.0915L180.469 18.9029L166.8 57.0915H194.139Z" fill="currentColor"/>
</svg>
