<svg viewBox="0 0 600 154" xmlns="http://www.w3.org/2000/svg">
<path d="M66.13 0L132 126.393H95.929L66.13 155l-30.06-28.607H0L66.13 0zm409.237 53.254c6.514 0 11.955 2.366 16.325 7.097l.31.342V54.72h12.233v51.642l-.002.674c-.014 2.221-.095 4.196-.243 5.924-.163 1.9-.39 3.575-.68 5.023-.87 3.982-2.573 7.403-5.11 10.263-4.784 5.503-11.362 8.254-19.734 8.254-7.068 0-12.885-1.9-17.451-5.702-4.594-3.812-7.293-9.052-8.097-15.72l-.058-.516h12.286l.087.453c.477 2.388 1.228 4.245 2.251 5.574 2.537 3.295 6.234 4.942 11.09 4.942 8.84 0 13.315-5.347 13.427-16.04l.002-.414v-7.385l-.357.358c-4.774 4.721-10.254 7.081-16.442 7.081-7.212 0-13.12-2.606-17.723-7.82-4.64-5.285-6.959-11.892-6.959-19.82 0-7.71 2.157-14.263 6.47-19.657 4.639-5.72 10.764-8.58 18.375-8.58zM66.37 31L24 112.609h18.196L66.37 136l24.434-23.391H109L66.37 31zm342.346 22.254c6.014 0 11.425 2.415 16.23 7.244l.351.358V54.72h12.287v52.89h-12.287v-5.538l-.398.367c-4.925 4.461-10.21 6.692-15.857 6.692-7.321 0-13.374-2.642-18.158-7.928-4.748-5.394-7.122-12.127-7.122-20.2 0-7.929 2.374-14.536 7.122-19.821 4.748-5.285 10.692-7.928 17.832-7.928zm134.009 0c7.792 0 13.954 2.48 18.484 7.44 4.394 4.813 6.64 11.444 6.738 19.893l.003.578-.054 2.878h-37.947l.04.463c.389 4.128 1.79 7.43 4.2 9.91 2.502 2.533 5.709 3.8 9.623 3.8 3.045 0 5.564-.724 7.557-2.172 1.882-1.392 4.015-3.922 6.4-7.59l.287-.446 10.33 5.756-.37.62c-1.485 2.45-3.047 4.57-4.687 6.358-1.776 1.936-3.678 3.53-5.708 4.778a22.905 22.905 0 01-6.578 2.743c-2.356.579-4.911.868-7.666.868-7.9 0-14.243-2.534-19.027-7.602-4.784-5.104-7.176-11.874-7.176-20.31 0-8.362 2.32-15.132 6.958-20.309 4.676-5.104 10.873-7.656 18.593-7.656zM211.535 18.5l40.067 89.11h-13.863l-8.808-20.363h-35.935l-9.35 20.364H170L211.535 18.5zm60.453 36.22v52.89h-12.232V54.72h12.232zm40.013-1.466c3.091 0 6.315.964 9.673 2.892l.439.257-5.6 11.187-.347-.244c-2.199-1.503-4.348-2.254-6.448-2.254-6.573 0-9.906 4.887-10.002 14.662l-.002.434v27.423h-12.232V54.72h12.232v4.724l.353-.365c2.104-2.155 3.98-3.645 5.628-4.468 1.775-.905 3.878-1.357 6.306-1.357zm19.462-29.487l15.007.002 1.278.011c6.08.083 10.745.568 13.997 1.454 3.624.977 6.813 2.823 9.568 5.538 4.82 4.707 7.23 10.644 7.23 17.812 0 7.675-2.573 13.756-7.72 18.245-5.032 4.39-11.779 6.633-20.242 6.73l-.58.004h-5.87v34.048h-12.668V23.767zM411 64.277c-4.204 0-7.72 1.593-10.547 4.779-2.79 3.222-4.186 7.204-4.186 11.947 0 5.068 1.36 9.195 4.078 12.38 2.79 3.223 6.306 4.834 10.546 4.834 4.53 0 8.191-1.557 10.982-4.67 2.79-3.222 4.186-7.313 4.186-12.273s-1.395-9.05-4.186-12.272c-2.79-3.15-6.415-4.725-10.873-4.725zm66.651-.054c-4.639 0-8.3 1.72-10.981 5.159-2.429 3.077-3.643 7.06-3.643 11.946 0 4.815 1.214 8.761 3.643 11.838 2.645 3.367 6.306 5.05 10.981 5.05 4.676 0 8.373-1.701 11.09-5.104 2.502-3.077 3.752-7.023 3.752-11.838 0-5.14-1.377-9.25-4.132-12.327-2.79-3.15-6.36-4.724-10.71-4.724zM211.317 46.846L198.27 75.355h25.497l-12.45-28.509zm331.68 17.431c-1.486 0-2.881.227-4.186.68a11.981 11.981 0 00-3.561 1.954 12.397 12.397 0 00-2.746 3.068 13.99 13.99 0 00-1.6 3.572l-.14.5h24.574c-1.704-6.516-5.817-9.774-12.341-9.774zM597.314 47.5L600 63.902h-2.198l-1.37-9.209-4.204 9.91-4.084-9.92-1.527 9.219h-2.216L587.39 47.5l4.875 11.857 5.05-11.857zm-13.258 1v2.164H580.8v13.092h-2.143V50.664h-3.265V48.5h8.664zm-235.74-13.058h-4.186v26.392h4.73c11.634 0 17.451-4.471 17.451-13.413 0-8.652-5.998-12.979-17.994-12.979zm-82.47-10.589c2.21 0 4.095.779 5.653 2.335 1.559 1.52 2.338 3.385 2.338 5.594 0 2.208-.78 4.09-2.338 5.647-1.522 1.557-3.389 2.335-5.6 2.335-2.21 0-4.095-.778-5.653-2.335-1.559-1.557-2.338-3.457-2.338-5.702 0-2.136.78-3.982 2.338-5.539 1.558-1.556 3.425-2.335 5.6-2.335z" fill="currentColor" fill-rule="nonzero"/>
</svg>
